<svg width="36" height="36" viewBox="0 0 36 36" fill="none" xmlns="http://www.w3.org/2000/svg">
<path fill-rule="evenodd" clip-rule="evenodd" d="M19.1362 7.30828L10.1362 9.55828C9.46845 9.72522 9 10.3252 9 11.0135V30H21V15V12V8.76349C21 7.78763 20.0829 7.0716 19.1362 7.30828ZM24 15V30H27V16.5C27 15.6716 26.3284 15 25.5 15H24ZM30 33H31.5C32.3284 33 33 32.3284 33 31.5C33 30.6716 32.3284 30 31.5 30H30V16.5C30 14.0147 27.9853 12 25.5 12H24V8.76349C24 5.83592 21.2488 3.68781 18.4086 4.39785L9.40859 6.64785C7.40534 7.14867 6 8.94859 6 11.0135V30H4.5C3.67157 30 3 30.6716 3 31.5C3 32.3284 3.67157 33 4.5 33H6H9H21H24H27H30Z" fill="#3258E8"/>
<path fill-rule="evenodd" clip-rule="evenodd" d="M12 25.5C12 24.6716 12.6716 24 13.5 24H16.5C17.3284 24 18 24.6716 18 25.5C18 26.3284 17.3284 27 16.5 27H13.5C12.6716 27 12 26.3284 12 25.5Z" fill="#3258E8"/>
<path fill-rule="evenodd" clip-rule="evenodd" d="M12 19.5C12 18.6716 12.6716 18 13.5 18H16.5C17.3284 18 18 18.6716 18 19.5C18 20.3284 17.3284 21 16.5 21H13.5C12.6716 21 12 20.3284 12 19.5Z" fill="#3258E8"/>
<path fill-rule="evenodd" clip-rule="evenodd" d="M12 13.5C12 12.6716 12.6716 12 13.5 12H16.5C17.3284 12 18 12.6716 18 13.5C18 14.3284 17.3284 15 16.5 15H13.5C12.6716 15 12 14.3284 12 13.5Z" fill="#3258E8"/>
</svg>
