<svg width="36" height="36" viewBox="0 0 36 36" fill="none" xmlns="http://www.w3.org/2000/svg">
<path fill-rule="evenodd" clip-rule="evenodd" d="M30 6C30 5.17157 29.3284 4.5 28.5 4.5C24.3579 4.5 21 7.85786 21 12V21C21 21.8284 21.6716 22.5 22.5 22.5H27L27 30C27 30.8284 27.6716 31.5 28.5 31.5C29.3284 31.5 30 30.8284 30 30L30 6ZM24 19.5H27L27 7.75606C25.2522 8.37381 24 10.0407 24 12L24 19.5Z" fill="#3258E8"/>
<path fill-rule="evenodd" clip-rule="evenodd" d="M9 6C9 5.17157 8.32843 4.5 7.5 4.5C6.67157 4.5 6 5.17157 6 6V13.5C6 16.2958 7.91216 18.6449 10.5 19.311V30C10.5 30.8284 11.1716 31.5 12 31.5C12.8284 31.5 13.5 30.8284 13.5 30V19.311C16.0878 18.6449 18 16.2958 18 13.5V6C18 5.17157 17.3284 4.5 16.5 4.5C15.6716 4.5 15 5.17157 15 6V10.5H13.5V6C13.5 5.17157 12.8284 4.5 12 4.5C11.1716 4.5 10.5 5.17157 10.5 6V10.5H9V6ZM9 13.5C9 15.1569 10.3431 16.5 12 16.5C13.6569 16.5 15 15.1569 15 13.5H9Z" fill="#3258E8"/>
</svg>
