<svg width="36" height="36" viewBox="0 0 36 36" fill="none" xmlns="http://www.w3.org/2000/svg">
<path fill-rule="evenodd" clip-rule="evenodd" d="M7.5 28.1517C8.52564 27.5589 9.82652 27.6199 10.8 28.35L12 29.25L13.2 28.35C14.2667 27.55 15.7333 27.55 16.8 28.35L18 29.25L19.2 28.35C20.2667 27.55 21.7333 27.55 22.8 28.35L24 29.25L25.2 28.35C26.1735 27.6199 27.4744 27.5589 28.5 28.1517V7.84833C27.4744 8.44107 26.1735 8.38011 25.2 7.65L24 6.75L22.8 7.65C21.7333 8.45 20.2667 8.45 19.2 7.65L18 6.75L16.8 7.65C15.7333 8.45 14.2667 8.45 13.2 7.65L12 6.75L10.8 7.65C9.82652 8.38011 8.52564 8.44107 7.5 7.84833V28.1517ZM15 5.25L12.9 3.675C12.3667 3.275 11.6333 3.275 11.1 3.675L9 5.25L6.96027 3.55023C5.98328 2.73607 4.5 3.4308 4.5 4.70256V31.2974C4.5 32.5692 5.98328 33.2639 6.96027 32.4498L9 30.75L11.1 32.325C11.6333 32.725 12.3667 32.725 12.9 32.325L15 30.75L17.1 32.325C17.6333 32.725 18.3667 32.725 18.9 32.325L21 30.75L23.1 32.325C23.6333 32.725 24.3667 32.725 24.9 32.325L27 30.75L29.0397 32.4498C30.0167 33.2639 31.5 32.5692 31.5 31.2974V4.70256C31.5 3.4308 30.0167 2.73607 29.0397 3.55023L27 5.25L24.9 3.675C24.3667 3.275 23.6333 3.275 23.1 3.675L21 5.25L18.9 3.675C18.3667 3.275 17.6333 3.275 17.1 3.675L15 5.25Z" fill="#3258E8"/>
<path fill-rule="evenodd" clip-rule="evenodd" d="M10.5 15C10.5 14.1716 11.1716 13.5 12 13.5H24C24.8284 13.5 25.5 14.1716 25.5 15C25.5 15.8284 24.8284 16.5 24 16.5H12C11.1716 16.5 10.5 15.8284 10.5 15Z" fill="#3258E8"/>
<path fill-rule="evenodd" clip-rule="evenodd" d="M10.5 21C10.5 20.1716 11.1716 19.5 12 19.5H18C18.8284 19.5 19.5 20.1716 19.5 21C19.5 21.8284 18.8284 22.5 18 22.5H12C11.1716 22.5 10.5 21.8284 10.5 21Z" fill="#3258E8"/>
</svg>
