<svg width="36" height="36" viewBox="0 0 36 36" fill="none" xmlns="http://www.w3.org/2000/svg">
<path fill-rule="evenodd" clip-rule="evenodd" d="M7.5 9C6.67157 9 6 9.67157 6 10.5V12.8033C7.7873 13.8365 9 15.7745 9 18C9 20.2255 7.7873 22.1635 6 23.1967V25.5C6 26.3284 6.67157 27 7.5 27H28.5C29.3284 27 30 26.3284 30 25.5V23.1967C28.2127 22.1635 27 20.2255 27 18C27 15.7745 28.2127 13.8365 30 12.8033V10.5C30 9.67157 29.3284 9 28.5 9H7.5ZM7.5 6C5.01472 6 3 8.01472 3 10.5V13.5C3 14.3284 3.71179 14.9689 4.43846 15.3667C5.36899 15.8761 6 16.8644 6 18C6 19.1356 5.36899 20.1239 4.43846 20.6333C3.71179 21.0311 3 21.6716 3 22.5V25.5C3 27.9853 5.01472 30 7.5 30H28.5C30.9853 30 33 27.9853 33 25.5V22.5C33 21.6716 32.2882 21.0311 31.5615 20.6333C30.631 20.1239 30 19.1356 30 18C30 16.8644 30.631 15.8761 31.5615 15.3667C32.2882 14.9689 33 14.3284 33 13.5V10.5C33 8.01472 30.9853 6 28.5 6H7.5Z" fill="#3258E8"/>
<path fill-rule="evenodd" clip-rule="evenodd" d="M18 16.783C17.6615 17.1231 17.2706 17.4071 16.8426 17.6239C17.0614 18.0509 17.2107 18.5105 17.2847 18.9845C17.7584 18.9084 18.2416 18.9084 18.7153 18.9845C18.7893 18.5105 18.9386 18.0509 19.1574 17.6239C18.7294 17.4071 18.3385 17.1231 18 16.783ZM19.4169 13.0761C18.9499 11.7327 17.0501 11.7327 16.5832 13.0761L16.2267 14.1016C16.0207 14.6942 15.4677 15.096 14.8404 15.1088L13.7549 15.1309C12.333 15.1599 11.746 16.9667 12.8793 17.8259L13.7444 18.4819C14.2444 18.8609 14.4556 19.511 14.2739 20.1115L13.9595 21.1507C13.5477 22.512 15.0847 23.6287 16.2521 22.8163L17.1432 22.1962C17.6582 21.8378 18.3418 21.8378 18.8568 22.1962L19.748 22.8163C20.9153 23.6287 22.4523 22.512 22.0405 21.1507L21.7261 20.1115C21.5444 19.511 21.7556 18.8609 22.2556 18.4819L23.1208 17.8259C24.2541 16.9667 23.667 15.1599 22.2451 15.1309L21.1596 15.1088C20.5324 15.096 19.9793 14.6942 19.7733 14.1016L19.4169 13.0761Z" fill="#3258E8"/>
</svg>
